<?xml version="1.0" encoding="UTF-8" standalone="no"?>
<svg
   xmlns:dc="http://purl.org/dc/elements/1.1/"
   xmlns:cc="http://creativecommons.org/ns#"
   xmlns:rdf="http://www.w3.org/1999/02/22-rdf-syntax-ns#"
   xmlns:svg="http://www.w3.org/2000/svg"
   xmlns="http://www.w3.org/2000/svg"
   xmlns:sodipodi="http://sodipodi.sourceforge.net/DTD/sodipodi-0.dtd"
   xmlns:inkscape="http://www.inkscape.org/namespaces/inkscape"
   xml:space="preserve"
   width="142.617mm"
   height="105.398mm"
   version="1.1"
   style="shape-rendering:geometricPrecision; text-rendering:geometricPrecision; image-rendering:optimizeQuality; fill-rule:evenodd; clip-rule:evenodd"
   viewBox="0 0 14457 10684"
   id="svg164"
   sodipodi:docname="logo.svg"
   inkscape:version="1.0.1 (3bc2e813f5, 2020-09-07)"><metadata
   id="metadata168"><rdf:RDF><cc:Work
       rdf:about=""><dc:format>image/svg+xml</dc:format><dc:type
         rdf:resource="http://purl.org/dc/dcmitype/StillImage" /></cc:Work></rdf:RDF></metadata><sodipodi:namedview
   pagecolor="#ffffff"
   bordercolor="#666666"
   borderopacity="1"
   objecttolerance="10"
   gridtolerance="10"
   guidetolerance="10"
   inkscape:pageopacity="0"
   inkscape:pageshadow="2"
   inkscape:window-width="1920"
   inkscape:window-height="1016"
   id="namedview166"
   showgrid="false"
   inkscape:zoom="1.8450895"
   inkscape:cx="269.51245"
   inkscape:cy="199.17733"
   inkscape:window-x="0"
   inkscape:window-y="27"
   inkscape:window-maximized="1"
   inkscape:current-layer="svg164" />
 <defs
   id="defs16">
  <style
   type="text/css"
   id="style2">
   <![CDATA[
    .fil1 {fill:#FEFEFE}
    .fil2 {fill:#AECB44}
    .fil3 {fill:#A23893}
    .fil0 {fill:#673267}
   ]]>
  </style>
   <clipPath
   id="id0">
    <rect
   x="5531"
   y="4590"
   width="3394"
   height="3146"
   id="rect4" />
   </clipPath>
   <clipPath
   id="id1">
    <path
   d="M5254 3604l3802 -107 63 1926c-1316,258 -2669,300 -3665,-30l-200 -1789z"
   id="path7" />
   </clipPath>
   <clipPath
   id="id2">
    <path
   d="M9056 3497l0 0 -3802 107 200 1789c996,330 2349,288 3665,30l-63 -1926z"
   id="path10" />
   </clipPath>
   <clipPath
   id="id3">
    <path
   d="M5254 3604l3802 -107 63 1926c-1316,258 -2669,300 -3665,-30l-200 -1789z"
   id="path13" />
   </clipPath>
 
  
  
  
  
  
  
  
  
  
  
  
  
  
  
  
  
  
  
  
  
 </defs>
 <path
   class="fil0"
   d="m 14011.435,4098.5299 205,576 c 295,828 349,1713 64,2550 -79,230 -181,451 -304,660 -717,1209 -2057,1865 -3394,2129.0001 -1635.0005,323 -3400.0005,111 -4967.0005,-423.0001 -123,-42 -245,-86 -367,-133 l -253,-96 c -660,-135 -1302,-344 -1898,-639 -865,-426 -1665,-1055 -2159.99999,-1881 l -2,21 -21,-61 c -153,-262 -275,-543 -359,-844 -37,-134 -66,-270 -87,-407 l -205,-576 c -295.000002,-828 -350.000002,-1713 -64,-2550 78,-230 180,-451 304,-660 C 1220.4345,555.52994 2559.4345,-100.47006 3897.4345,-364.47006 c 1634,-323 3400,-111 4967,423 612,209 1358.0005,520 1814.0005,837 l -291,351.99996 2794,1580 z"
   id="path19" /><path
   class="fil1"
   d="M 607.43451,2563.5299 C 1427.4345,156.52994 5062.4345,-782.47006 8725.4345,466.52994 c 119,41 236,83 352,127 -670,-103 -1383,-137 -2120,-89 -3414,223 -6107.99999,2115.99996 -6287.99999,4324.99996 -273,-764 -310,-1540 -62,-2266 z m 13203.00049,2256 c 272,764 309,1540 62,2266 -820,2407 -4455.0005,3346.0001 -8118.0005,2097 -119,-41 -237,-83 -353,-127 671,103 1384,137 2120,89 3415.0005,-223 6109.0005,-2117 6289.0005,-4325 z"
   id="path21" /><path
   class="fil0"
   d="m 690.43451,5251.5299 c -14,-216 -5,-432 25,-646 176,-1234 1045.99999,-2226 2050.99999,-2897 1221,-814.99996 2728,-1238.99996 4183,-1333.99996 1455,-95 3004,129 4321.0005,778.99996 1083,535 2075,1406 2410,2606 58,208 94,422 108,638 14,215 6,432 -25,646 -175,1234 -1045,2226 -2051,2897 -1220,815 -2727.0005,1239 -4182.0005,1334 -1456,95 -3005,-130 -4321,-779 -1084,-535 -2075,-1406 -2409.99999,-2606 -58,-208 -94,-422 -109,-638 z"
   id="path23" /><path
   class="fil2"
   d="m 1120.4345,5223.5299 c -143.99999,-2220 2478,-4199 5857,-4418.99996 3379.0005,-221 6236.0005,1399.99996 6381.0005,3620.99996 145,2220 -2477,4199 -5856.0005,4419 -3380,221 -6237,-1400 -6382,-3621 z"
   id="path25" /><g
   id="_617506560"
   transform="translate(11.434508,-517.47006)">
   <path
   class="fil3"
   d="m 10734,4082 z m -61,-375 52,7 c 9,3 19,6 28,11 19,10 26,17 28,38 -30,35 -64,9 -114,153 -14,39 -27,79 2,104 24,22 41,41 65,62 1,-29 -11,-45 -6,-79 12,-92 127,-106 159,-47 -9,20 -46,39 -65,73 -69,128 7,184 50,299 50,132 71,295 53,440 -33,280 -129,475 -325,676 -12,13 -21,22 -35,33 -14,10 -26,18 -37,30 123,16 207,72 275,132 71,63 111,138 146,226 66,167 -10,251 45,308 52,53 96,31 78,63 -25,46 -91,35 -110,-10 l -12,-33 c -136,361 -620,240 -618,-152 1,-121 127,-264 291,-195 204,85 159,427 -46,364 -82,-25 -119,-114 -94,-192 8,-25 1,-18 17,-27 -10,44 -24,74 -9,118 40,113 191,123 234,6 51,-139 -85,-304 -242,-255 -147,45 -149,255 -83,365 173,290 587,128 532,-249 -31,-207 -188,-387 -401,-416 -25,-4 -40,-4 -62,-3 -34,0 -64,22 -94,35 l -95,32 c -63,22 -302,71 -369,63 9,23 19,34 28,58 73,194 -85,417 -280,446 -216,33 -341,-205 -182,-358 61,-59 176,-86 240,-25 26,24 50,67 42,116 -6,36 -25,65 -49,87 l -8,7 c -22,17 -42,29 -73,32 -74,9 -136,-56 -96,-132 19,-37 59,-54 108,-52 -15,10 -8,5 -27,8 -57,6 -110,75 -68,130 42,57 140,28 175,-27 42,-67 22,-148 -43,-176 -141,-62 -286,101 -242,241 65,210 385,133 465,-84 35,-94 12,-235 -36,-262 l -168,1 c -152,1 -346,-19 -499,-57 -227,-57 -405,-128 -578,-266 l -109,-97 c -16,-15 -25,-14 -24,-37 23,21 42,44 67,65 l 113,89 c 142,102 363,191 547,216 -9,-18 -10,-11 -20,-26 -74,-102 -65,-281 59,-340 21,-11 51,-9 64,-25 20,-26 13,-42 16,-70 64,10 40,56 5,79 71,15 115,71 120,139 10,131 -143,201 -193,92 -50,-108 91,-196 123,-94 l -1,41 c -4,11 -1,5 -6,11 8,-63 -20,-93 -63,-83 -79,18 -66,175 34,167 121,-10 133,-227 -12,-252 -110,-19 -207,119 -158,261 39,115 105,115 186,126 64,8 206,10 274,7 181,-9 251,-17 429,-56 20,-4 38,-8 59,-13 l 109,-33 c 34,-11 70,-25 104,-40 20,-8 31,-15 51,-24 21,-9 25,-15 45,-26 75,-44 179,-152 230,-226 23,-34 38,-59 59,-97 151,-266 169,-699 -22,-946 -73,-95 -139,-165 -255,-212 -32,-13 -85,-31 -127,-37 -99,-14 -236,8 -304,45 -17,9 -30,16 -46,24 -55,31 -124,91 -163,144 -285,383 -82,864 252,863 59,0 121,-18 170,-44 11,-6 12,-8 22,-15 73,-47 120,-106 155,-191 122,-303 -130,-567 -343,-442 -31,19 -58,40 -80,71 -103,143 -29,228 11,335 -19,-7 -50,-76 -58,-94 -16,-37 -25,-72 -18,-125 9,-64 18,-86 43,-126 27,-41 38,-42 59,-62 62,-62 180,-81 263,-45 234,103 248,443 82,635 -239,276 -639,138 -718,-223 -39,-179 -7,-354 86,-518 43,-75 90,-116 149,-168 11,-10 10,-13 21,-21 12,-9 11,-6 23,-13 58,-37 76,-50 150,-75 32,-11 83,-23 120,-26 20,-2 49,-5 66,-4 61,2 76,3 143,19 19,5 44,12 64,20 40,16 75,33 105,54 -2,-17 -9,-36 -13,-55 -25,-124 34,-186 108,-189 z"
   id="path27" />
   <path
   class="fil3"
   d="m 10936,5163 c 162,22 288,10 443,-31 163,-42 365,-193 246,-404 -57,-100 -111,-146 -224,-76 -99,61 -176,223 -241,321 -19,29 -38,56 -60,84 -92,116 -134,90 -164,106 z"
   id="path29" />
   <path
   class="fil3"
   d="m 10782,5452 c -31,-4 -38,-8 -60,-24 4,16 -1,5 11,19 59,65 269,165 372,179 130,17 265,-26 283,-162 5,-36 4,-93 -8,-118 -39,-85 -158,-59 -227,-32 -43,17 -77,32 -118,52 -49,24 -189,94 -253,86 z"
   id="path31" />
   <path
   class="fil3"
   d="m 10038,5248 c -7,52 12,66 44,109 167,221 482,-193 466,-356 l -4,6 c -24,38 -34,58 -102,80 l -151,32 c -46,6 -109,19 -149,34 -18,7 -49,22 -62,34 -13,12 -39,40 -42,61 z"
   id="path33" />
   <path
   class="fil3"
   d="m 10938,4398 c -6,46 69,69 78,5 5,-40 -71,-55 -78,-5 z"
   id="path35" />
   <path
   class="fil3"
   d="m 10962,4296 c 5,-34 -17,-39 -42,-42 -24,-3 -49,37 -23,64 23,23 60,14 65,-22 z"
   id="path37" />
   <path
   class="fil3"
   d="m 10962,4569 c 89,12 50,-103 -5,-68 -30,18 -21,64 5,68 z"
   id="path39" />
   <path
   class="fil3"
   d="m 11119,5712 c -4,35 56,53 62,8 6,-41 -56,-49 -62,-8 z"
   id="path41" />
   <path
   class="fil3"
   d="m 11431,5145 v 42 l 40,11 c 40,-45 14,-79 -40,-53 z"
   id="path43" />
   <path
   class="fil3"
   d="m 9703,6268 c 56,7 38,-90 -11,-57 -25,17 -7,54 11,57 z"
   id="path45" />
   <path
   class="fil3"
   d="m 9480,6212 -4,31 c 5,4 21,32 48,14 2,-2 11,-15 12,-18 5,-20 -17,-38 -23,-39 -13,-1 -25,7 -33,12 z"
   id="path47" />
   <path
   class="fil3"
   d="m 9573,6256 c -2,18 5,26 11,38 l 31,4 c 25,-28 32,-36 -7,-64 -9,3 -33,11 -35,22 z"
   id="path49" />
   <path
   class="fil3"
   d="m 11025,5673 c -2,14 0,14 2,26 31,21 39,15 59,-13 -7,-19 -4,-32 -32,-35 -12,-2 -27,10 -29,22 z"
   id="path51" />
   <path
   class="fil3"
   d="m 10909,6344 c -2,19 5,26 11,39 l 31,4 c 26,-30 25,-22 7,-57 l -31,-4 c -4,5 -17,15 -18,18 z"
   id="path53" />
   <path
   class="fil3"
   d="m 10825,6422 c -2,21 3,17 12,33 l 31,5 c 4,-6 17,-16 18,-19 7,-51 -56,-50 -61,-19 z"
   id="path55" />
   <path
   class="fil3"
   d="m 10724,6435 c -15,40 -11,24 4,53 l 30,4 c 25,-28 24,-23 8,-57 z"
   id="path57" />
   <path
   class="fil3"
   d="m 11229,5674 c -5,42 7,42 48,38 11,-29 9,-10 6,-47 -10,-3 -49,-23 -54,9 z"
   id="path59" />
   <path
   class="fil3"
   d="m 11532,5132 c -2,14 1,15 2,27 38,14 50,18 56,-24 3,-28 -53,-39 -58,-3 z"
   id="path61" />
   <path
   class="fil3"
   d="m 11601,5047 c -3,21 3,16 12,33 39,5 41,5 46,-34 v -2 c -14,-12 -8,-16 -29,-19 -12,-2 -27,10 -29,22 z"
   id="path63" />
   <path
   class="fil3"
   d="m 9090,5279 c -4,31 -4,27 20,44 31,-11 36,-12 23,-49 -22,-3 -24,-3 -43,5 z"
   id="path65" />
   <path
   class="fil3"
   d="m 9084,5362 c -5,13 -6,14 -13,24 l 12,23 26,3 18,-18 c -11,-33 -1,-31 -43,-32 z"
   id="path67" />
   <path
   class="fil3"
   d="m 9149,5229 5,19 c 31,28 57,-2 44,-28 -8,-15 -21,-16 -34,-8 -5,3 -14,14 -15,17 z"
   id="path69" />
   <path
   class="fil3"
   d="m 9368,5436 11,-4 2,-15 c -4,4 -4,1 -8,8 -6,10 -2,2 -5,11 z"
   id="path71" />
   <polygon
   class="fil3"
   points="9366,5442 9368,5436 9363,5436 "
   id="polygon73" />
   <polygon
   class="fil3"
   points="10154,4881 10156,4875 10151,4875 "
   id="polygon75" />
   <line
   class="fil3"
   x1="10156"
   y1="4875"
   x2="10156"
   y2="4875"
   id="line77" />
  </g><g
   id="_614686464"
   transform="translate(11.434508,-517.47006)">
   <path
   class="fil3"
   d="m 3529,6310 z m 14,322 -50,-15 c -8,-4 -17,-9 -25,-14 -18,-12 -24,-19 -23,-37 34,-24 63,4 128,-106 18,-30 35,-61 10,-87 -20,-22 -34,-42 -54,-63 -5,24 4,39 -4,67 -23,74 -135,64 -159,10 10,-15 49,-24 71,-49 81,-94 15,-153 -13,-257 -33,-118 -34,-257 0,-374 66,-227 182,-371 394,-502 14,-8 23,-14 38,-21 15,-6 27,-10 39,-18 -117,-36 -191,-97 -250,-159 -61,-66 -91,-135 -114,-214 -44,-150 40,-206 -7,-264 -44,-53 -89,-42 -68,-65 30,-34 92,-13 105,28 l 7,29 c 175,-274 627,-87 579,238 -15,99 -153,196 -304,109 -186,-108 -102,-383 88,-294 76,36 101,116 67,177 -10,19 -2,14 -19,19 15,-36 32,-57 23,-97 -26,-101 -170,-136 -225,-47 -66,106 46,267 203,255 148,-11 174,-184 123,-287 -133,-272 -551,-212 -542,110 5,177 135,355 337,417 24,8 39,10 60,14 33,6 64,-7 94,-12 l 96,-10 c 64,-7 300,-4 363,15 -5,-21 -13,-32 -19,-53 -48,-174 130,-331 323,-320 212,12 304,232 133,330 -66,38 -180,40 -235,-22 -22,-25 -40,-65 -27,-104 10,-29 32,-50 58,-64 l 9,-4 c 23,-10 43,-16 73,-14 74,7 125,72 78,127 -23,28 -64,35 -111,24 16,-5 9,-3 27,-1 56,4 115,-43 82,-96 -35,-55 -132,-48 -173,-9 -48,47 -38,118 21,154 128,76 288,-32 262,-156 -38,-186 -356,-180 -459,-15 -45,72 -39,193 4,224 l 162,29 c 147,27 332,78 475,137 212,88 376,180 526,325 l 94,100 c 14,15 22,16 19,35 -20,-21 -35,-44 -57,-66 l -99,-94 c -124,-110 -327,-224 -502,-278 7,17 8,11 17,26 58,97 29,244 -98,271 -22,5 -50,-2 -64,9 -23,18 -18,32 -24,55 -61,-19 -32,-54 4,-66 -66,-26 -102,-80 -99,-138 6,-109 161,-140 197,-41 35,99 -110,146 -130,56 l 6,-34 c 5,-9 2,-4 7,-8 -15,51 9,81 51,80 78,0 84,-133 -13,-144 -117,-14 -155,164 -18,211 104,36 214,-62 184,-188 -25,-102 -89,-115 -165,-138 -61,-19 -198,-45 -264,-55 -176,-26 -244,-31 -420,-31 -20,0 -38,0 -59,0 l -109,8 c -34,3 -70,7 -105,14 -20,4 -32,7 -52,11 -21,3 -26,7 -46,13 -78,23 -192,94 -249,146 -26,24 -44,43 -69,70 -176,193 -245,549 -90,788 60,92 115,162 221,222 29,16 79,41 119,54 93,29 228,35 298,17 17,-4 31,-8 47,-12 57,-16 131,-53 174,-90 320,-266 181,-701 -141,-760 -57,-11 -119,-7 -169,6 -11,2 -12,4 -23,7 -76,27 -129,67 -172,131 -153,229 58,494 279,428 32,-9 61,-22 85,-44 116,-100 55,-184 29,-280 17,10 39,73 45,89 11,33 16,64 2,107 -15,51 -27,68 -56,96 -30,30 -42,28 -64,41 -67,40 -184,35 -259,-10 -214,-128 -188,-412 -4,-541 263,-186 632,0 666,314 17,156 -35,295 -144,414 -51,55 -100,80 -164,113 -12,6 -11,8 -23,13 -12,5 -11,3 -23,7 -61,20 -80,27 -154,35 -32,3 -82,4 -118,0 -20,-2 -48,-5 -65,-9 -58,-13 -73,-16 -135,-41 -18,-8 -42,-19 -60,-29 -36,-20 -68,-40 -95,-63 0,14 5,31 7,47 9,108 -56,148 -127,138 z"
   id="path80" />
   <path
   class="fil3"
   d="m 3461,5378 c -154,-48 -277,-61 -432,-55 -161,6 -375,95 -284,291 43,93 89,140 207,103 103,-33 196,-153 270,-222 22,-21 43,-40 68,-60 102,-79 140,-50 171,-57 z"
   id="path82" />
   <path
   class="fil3"
   d="m 3644,5166 c 29,9 35,13 55,30 -2,-14 1,-4 -9,-18 -49,-64 -240,-185 -337,-215 -124,-38 -260,-27 -293,83 -9,29 -15,77 -6,100 28,77 146,77 215,67 44,-7 79,-13 120,-22 51,-11 194,-44 255,-25 z"
   id="path84" />
   <path
   class="fil3"
   d="m 4337,5469 c 13,-42 -3,-57 -30,-99 -134,-213 -487,74 -491,211 l 5,-4 c 28,-27 39,-42 107,-47 h 150 c 45,3 107,4 148,-1 18,-3 50,-10 64,-17 14,-8 42,-26 47,-43 z"
   id="path86" />
   <path
   class="fil3"
   d="m 3369,6012 c 11,-38 -59,-70 -75,-19 -10,32 62,59 75,19 z"
   id="path88" />
   <path
   class="fil3"
   d="m 3333,6091 c -8,28 12,36 36,43 23,7 51,-22 29,-49 -18,-23 -56,-23 -65,6 z"
   id="path90" />
   <path
   class="fil3"
   d="m 3365,5865 c -84,-25 -60,76 -2,58 30,-10 27,-50 2,-58 z"
   id="path92" />
   <path
   class="fil3"
   d="m 3349,4889 c 8,-28 -48,-53 -59,-18 -10,33 49,51 59,18 z"
   id="path94" />
   <path
   class="fil3"
   d="m 2981,5303 5,-35 -37,-16 c -44,30 -23,63 32,51 z"
   id="path96" />
   <path
   class="fil3"
   d="m 4781,4684 c -54,-16 -47,67 4,49 26,-10 13,-44 -4,-49 z"
   id="path98" />
   <path
   class="fil3"
   d="m 4990,4771 7,-25 c -4,-5 -16,-31 -44,-21 -3,1 -13,11 -14,13 -7,15 12,34 18,36 11,4 24,-1 33,-3 z"
   id="path100" />
   <path
   class="fil3"
   d="m 4905,4717 c 4,-15 -2,-22 -6,-33 l -30,-9 c -27,19 -35,24 0,54 9,-1 33,-3 36,-12 z"
   id="path102" />
   <path
   class="fil3"
   d="m 3435,4939 c 4,-12 1,-13 2,-23 -29,-23 -37,-19 -59,0 4,18 0,28 26,36 12,3 28,-4 31,-13 z"
   id="path104" />
   <path
   class="fil3"
   d="m 3626,4403 c 5,-15 -1,-23 -6,-34 l -29,-9 c -29,20 -27,13 -14,46 l 29,9 c 5,-4 19,-10 20,-12 z"
   id="path106" />
   <path
   class="fil3"
   d="m 3716,4353 c 5,-16 -1,-14 -7,-29 l -29,-9 c -5,3 -19,9 -20,12 -13,41 48,52 56,26 z"
   id="path108" />
   <path
   class="fil3"
   d="m 3815,4361 c 20,-30 14,-18 3,-44 l -29,-9 c -27,18 -26,15 -14,45 z"
   id="path110" />
   <path
   class="fil3"
   d="m 3238,4901 c 10,-34 -2,-36 -41,-40 -14,22 -11,6 -12,37 9,5 45,29 53,3 z"
   id="path112" />
   <path
   class="fil3"
   d="m 2882,5295 c 3,-11 1,-12 1,-22 -35,-19 -46,-24 -56,10 -7,22 46,42 55,12 z"
   id="path114" />
   <path
   class="fil3"
   d="m 2805,5354 c 5,-17 -1,-14 -7,-30 -38,-11 -39,-11 -49,20 v 1 c 12,13 6,16 25,22 12,3 28,-4 31,-13 z"
   id="path116" />
   <path
   class="fil3"
   d="m 5256,5614 c 7,-25 7,-22 -15,-40 -31,3 -36,3 -27,37 20,6 23,7 42,3 z"
   id="path118" />
   <path
   class="fil3"
   d="m 5271,5546 c 6,-10 8,-10 16,-17 l -9,-21 -25,-8 -20,12 c 7,30 -2,26 38,34 z"
   id="path120" />
   <path
   class="fil3"
   d="m 5193,5645 -3,-17 c -26,-29 -55,-8 -45,16 6,13 18,16 32,12 5,-1 15,-8 16,-11 z"
   id="path122" />
   <path
   class="fil3"
   d="m 5006,5433 -11,2 -4,12 c 4,-2 4,0 9,-5 7,-7 2,-2 6,-9 z"
   id="path124" />
   <polygon
   class="fil3"
   points="5008,5429 5006,5433 5011,5435 "
   id="polygon126" />
   <polygon
   class="fil3"
   points="4182,5752 4180,5756 4185,5758 "
   id="polygon128" />
   <line
   class="fil3"
   x1="4180"
   y1="5756"
   x2="4180"
   y2="5756"
   id="line130" />
  </g><path
   class="fil0"
   d="m 3652.4345,6963.5299 c 34,-87 17,-153 -53,-199 -41,-27 -85,-32 -132,-14 -47,17 -92,58 -133,121 -42,64 -62,121 -59,171 3,49 25,88 67,115 28,18 61,25 98,21 38,-4 72,-21 101,-49 l 331,216 c -51,61 -106,110 -162,149 -57,38 -117,64 -178,76 -62,12 -127,11 -193,-4 -67,-15 -136,-45 -206,-91 -68,-45 -123,-97 -167,-158 -44,-61 -73,-128 -87,-199 -14,-72 -13,-148 4,-228 17,-80 53,-161 107,-244 52,-79 110,-142 175,-189 66,-47 134,-79 206,-95 72,-17 145,-18 219,-4 74,14 144,44 212,88 71,47 128,98 170,154 43,56 71,115 86,178 15,63 16,128 3,195 -13,68 -39,137 -79,207 z m 1197,15 389,131 -224,662 c -53,157 -133,263 -240,319 -107,55 -237,56 -390,4 -155,-52 -260,-133 -316,-243 -55,-109 -56,-242 -3,-400 l 225,-663 389,132 -238,701 c -19,56 1,93 60,113 30,10 53,10 71,1 17,-10 30,-28 40,-56 z m 1340,1490 90,-747 c 6,-48 -10,-74 -49,-79 -43,-5 -67,16 -73,64 l -90,747 -335,-40 90,-747 c 5,-48 -14,-75 -57,-80 -39,-5 -61,17 -67,65 l -90,747 -369,-45 97,-807 c 8,-70 27,-129 56,-176 29,-46 64,-83 105,-109 42,-26 87,-43 136,-52 49,-9 99,-10 149,-4 51,6 99,20 144,43 45,23 79,54 102,93 36,-32 76,-54 122,-66 46,-12 96,-14 150,-8 41,5 85,17 131,37 45,20 86,47 123,82 36,35 65,78 86,128 21,51 28,109 20,175 l -100,823 z m 1132,-787 5,103 130,-7 c 29,-1 43,-19 41,-52 -2,-35 -17,-52 -46,-50 z m 135,422 c 43,-3 64,-23 62,-62 -2,-42 -25,-62 -69,-59 l -112,5 6,121 z m -502,408 -60,-1184 627,-32 c 56,-2 105,3 148,16 43,13 79,32 107,57 29,26 51,57 67,94 15,37 24,77 26,121 3,51 -5,100 -22,147 -17,46 -47,82 -88,106 53,22 92,57 118,104 26,48 41,100 43,156 4,63 -3,117 -20,164 -17,46 -41,85 -73,117 -32,32 -71,56 -118,73 -46,17 -97,27 -153,30 z m 1660,-1374 402,-85 144,683 c 34,163 20,295 -44,397 -64,102 -175,169 -333,203 -161,33 -293,17 -396,-49 -103,-65 -172,-180 -206,-342 l -145,-685 402,-85 153,724 c 12,58 48,80 108,67 31,-7 52,-18 62,-35 10,-17 12,-40 6,-69 z m 1407.0005,70 c -53.0005,-78 -118.0005,-101 -195.0005,-69 -45,18 -74,52 -86,101 -12,49 -4,108 26,179 29,70 65,118 107,144 43,25 87,28 133.0005,10 31,-13 55,-36 73,-70 18,-33 23,-70 16,-111 l 366,-151 c 20,76 30,149 30,217 0,69 -12,132 -37,191 -24,58 -62,110 -111,157 -50,47 -114,86 -192,118 -75,31 -149,47 -225.0005,49 -75,2 -146,-11 -213,-40 -67,-29 -129,-73 -186,-132 -56,-59 -103,-134 -141,-225 -36,-88 -55,-171 -57,-252 -3,-80 10,-155 36,-223 27,-69 67,-130 121,-183 53,-53 117,-95 192,-126 79,-33 153,-51 223,-54 70,-4 136.0005,6 195.0005,29 60,24 115,59 163,108 49,48 91,109 127,182 z m 1438,-24 -56,-78 c 4,41 -6,84 -32,129 -25,45 -67,89 -126,132 -41,30 -85,53 -131,70 -46,16 -93,23 -142,19 -49,-4 -97,-21 -146,-50 -48,-30 -95,-75 -140,-137 -42,-58 -68,-113 -80,-165 -11,-51 -9,-100 4,-146 14,-46 39,-90 75,-131 36,-41 80,-81 132,-119 l 77,-56 c 6,-2 15,-3 24,-4 9,0 20,3 32,9 12,6 26,17 42,31 15,15 33,36 52,63 21,29 37,52 46,70 10,18 17,35 22,51 l -101,74 c -18,13 -28,26 -30,41 -3,14 1,27 10,40 9,12 20,19 36,23 15,3 31,-1 49,-15 29,-20 50,-40 66,-60 16,-19 24,-41 25,-64 1,-24 -6,-51 -20,-81 -14,-30 -36,-65 -66,-106 -25,-34 -48,-61 -69,-80 -20,-19 -40,-31 -59,-37 -20,-5 -39,-5 -57,1 -19,6 -38,16 -58,31 l -290,210 -223,-306 421,-306 c 42,-30 88,-52 138,-65 50,-14 101,-16 153,-7 52,9 105,30 156,63 52,34 101,81 146,144 l 428,588 z"
   id="path133" /><path
   class="fil0"
   d="m 6972.4345,6145.5299 -5,-402 c -1,-18 -5,-32 -15,-40 -9,-7 -23,-11 -42,-11 -15,0 -27,4 -35,13 -8,8 -12,21 -12,39 l 6,402 -226,4 -6,-383 c -1,-91 21,-161 67,-209 46,-48 113,-72 203,-74 92,-1 161,22 210,68 49,47 74,116 75,207 l 6,382 z m 639,-10 -1,-52 c -11,20 -29,36 -55,48 -26,12 -58,18 -98,19 -28,0 -55,-3 -81,-10 -26,-7 -49,-19 -70,-37 -20,-17 -37,-40 -49,-68 -13,-29 -19,-64 -20,-106 0,-39 5,-72 16,-99 12,-26 28,-48 48,-64 21,-16 46,-28 75,-35 29,-8 62,-11 97,-12 l 52,-1 c 4,1 8,3 12,6 5,3 9,7 12,14 3,7 6,16 9,27 2,12 3,27 4,45 0,20 -1,35 -2,46 -1,11 -4,21 -7,30 l -68,1 c -12,0 -21,3 -27,9 -5,5 -8,12 -8,21 1,8 3,15 9,22 6,6 15,9 27,9 19,0 35,-2 48,-6 14,-4 24,-11 32,-22 8,-10 13,-24 16,-42 4,-18 5,-41 5,-68 -1,-24 -3,-43 -6,-58 -3,-15 -8,-27 -15,-35 -7,-9 -16,-15 -26,-18 -10,-3 -22,-5 -36,-4 l -196,2 -3,-207 285,-5 c 28,0 56,5 83,14 26,10 50,25 70,46 21,21 38,47 51,78 12,31 19,68 20,110 l 5,399 z"
   id="path139" /><path
   class="fil1"
   d="m 6941.4345,6093.5299 -6,-401 c 0,-19 -5,-32 -14,-40 -10,-8 -23,-12 -42,-11 -15,0 -27,4 -35,12 -9,8 -12,22 -12,40 l 6,402 -227,3 -5,-382 c -2,-91 21,-161 67,-209 45,-48 113,-73 203,-74 91,-1 161,21 210,68 49,47 74,116 75,207 l 5,382 z m 638,-9 v -53 c -11,20 -29,36 -55,48 -26,12 -59,19 -99,19 -27,1 -54,-3 -80,-10 -26,-7 -50,-19 -70,-36 -21,-17 -37,-40 -50,-69 -12,-28 -19,-63 -19,-105 -1,-39 5,-72 16,-99 11,-27 27,-48 48,-65 21,-16 46,-28 75,-35 29,-7 61,-11 97,-11 l 52,-1 c 4,1 8,3 12,6 4,2 8,7 12,14 3,7 6,16 8,27 3,11 4,26 4,45 1,19 0,35 -1,46 -2,11 -4,21 -7,30 l -68,1 c -13,0 -21,3 -27,8 -5,6 -8,13 -8,22 0,8 3,15 9,21 5,7 14,10 27,10 19,-1 35,-3 48,-7 13,-4 24,-11 32,-21 7,-10 13,-24 16,-42 3,-18 5,-41 4,-69 0,-23 -2,-42 -5,-57 -4,-15 -9,-27 -16,-36 -6,-8 -15,-14 -25,-17 -10,-4 -22,-5 -36,-5 l -197,3 -3,-208 286,-4 c 28,0 56,4 82,14 27,10 50,25 71,46 21,20 37,46 50,77 13,32 20,69 20,111 l 6,399 z"
   id="path141" /><g
   clip-path="url(#id1)"
   id="g143"
   transform="translate(11.434508,-517.47006)">
  </g><g
   clip-path="url(#id3)"
   id="g149"
   transform="translate(11.434508,-517.47006)">
  </g><polygon
   class="fil0"
   points="9364,2187 10277,1910 10473,2284 9507,2433 "
   id="polygon151"
   transform="translate(11.434508,-517.47006)" /><polygon
   class="fil0"
   points="9157,2465 9702,2574 9419,3986 8874,3877 "
   id="polygon153"
   transform="translate(11.434508,-517.47006)" /><path
   class="fil0"
   d="m 8014.4345,3277.5299 5,-117 c -29,42 -76,75 -141,98 -65,23 -147,32 -245,28 -69,-3 -134,-15 -197,-34 -63,-19 -119,-49 -167,-90 -48,-42 -86,-95 -112,-159 -27,-65 -38,-144 -34,-236 4,-87 22,-160 53,-217 32,-57 74,-102 127,-135 53,-33 116,-56 189,-67 73,-12 153,-16 241,-12 l 128,6 c 9,3 19,8 29,15 10,6 19,17 27,33 8,15 13,35 18,61 4,25 5,58 3,99 -2,44 -5,78 -10,102 -5,25 -12,46 -20,65 l -169,-8 c -30,-1 -53,4 -67,15 -14,12 -22,27 -22,46 -1,18 5,34 18,49 13,15 35,24 65,25 47,2 87,0 120,-7 33,-7 60,-21 81,-42 20,-22 36,-52 46,-91 10,-39 17,-90 19,-151 3,-52 1,-94 -5,-128 -6,-34 -17,-61 -33,-80 -16,-20 -36,-35 -61,-43 -24,-9 -53,-14 -87,-15 l -485,-23 22,-459 703,32 c 70,3 137,17 201,43 64,25 120,62 168,111 48,49 86,108 113,179 27,71 38,153 34,247 l -40,883 z"
   id="path155" /><path
   class="fil0"
   d="m 6094.4345,3734.5299 c 41,-12 72,-34 90,-67 -19,7 -38,12 -58,13 -20,2 -40,0 -60,-6 -20,-5 -39,-13 -56,-25 -16,-12 -31,-27 -42,-46 -11,-19 -18,-41 -20,-67 -4,-50 10,-93 40,-127 31,-35 81,-55 149,-60 51,-4 96,7 133,33 37,26 58,73 63,141 3,32 -2,64 -13,96 -11,32 -28,60 -49,86 -22,25 -48,47 -78,64 -29,18 -61,29 -94,34 z"
   id="path157" /><path
   class="fil0"
   d="m 6285.4345,2457.5299 c -34,-109 -108,-160 -220,-151 -66,5 -118,34 -154,86 -37,52 -51,124 -44,217 7,92 33,161 77,206 43,45 99,65 165,60 46,-3 87,-21 124,-54 37,-32 60,-73 68,-123 l 534,-41 c -6,96 -24,184 -54,264 -29,79 -72,148 -129,206 -56,59 -126,106 -210,142 -85,36 -183,58 -297,67 -109,8 -212,0 -309,-25 -98,-26 -183,-67 -257,-125 -74,-58 -134,-132 -181,-221 -48,-89 -76,-194 -85,-313 -9,-115 2,-219 34,-313 31,-94 79,-176 143,-246 64,-70 142,-126 233,-168 91,-42 191,-67 300,-75 115,-9 219,-3 310,19 92,22 171,57 238,106 67,48 121,110 163,184 41,74 70,160 85,257 z"
   id="path159" /><path
   class="fil0"
   d="m 4631.4345,3500.5299 -58,-109 -276,58 -4,123 -533,113 182,-1511 544,-116 781,1307 z m -316,-636 -5,309 136,-29 z"
   id="path161" />
</svg>
